inDegrees=no
num_controls=7
num_derivatives=13
num_iterations=108
num_multipliers=7
num_parameters=0
num_slacks=7
num_states=26
objective=0.501496
objective_accelerations=0.026258
objective_balance=0.002995
objective_effort=0.030651
objective_height=0.436032
objective_ligament=0.005560
solver_duration=1273.360717
status=Solve_Succeeded
success=true
DataType=double
version=3
OpenSimVersion=4.5
endheader
time	/jointset/ground_pelvis/pelvis_tilt/value	/jointset/ground_pelvis/pelvis_tx/value	/jointset/ground_pelvis/pelvis_ty/value	/jointset/hip_r/hip_flexion_r/value	/jointset/hip_r/hip_adduction_r/value	/jointset/hip_r/hip_rotation_r/value	/jointset/back/lumbar_extension/value	/jointset/patellofemoral_r/patellar_flexion_r/value	/jointset/knee_r/knee_flexion_r/value	/jointset/knee_r/knee_adduction_r/value	/jointset/knee_r/knee_rotation_r/value	/jointset/ankle_r/ankle_angle_r/value	/jointset/subtalar_r/subtalar_angle_r/value	/jointset/ground_pelvis/pelvis_tilt/speed	/jointset/ground_pelvis/pelvis_tx/speed	/jointset/ground_pelvis/pelvis_ty/speed	/jointset/hip_r/hip_flexion_r/speed	/jointset/hip_r/hip_adduction_r/speed	/jointset/hip_r/hip_rotation_r/speed	/jointset/back/lumbar_extension/speed	/jointset/patellofemoral_r/patellar_flexion_r/speed	/jointset/knee_r/knee_flexion_r/speed	/jointset/knee_r/knee_adduction_r/speed	/jointset/knee_r/knee_rotation_r/speed	/jointset/ankle_r/ankle_angle_r/speed	/jointset/subtalar_r/subtalar_angle_r/speed	/forceset/tau_hip_flexion_r	/forceset/tau_hip_adduction_r	/forceset/tau_hip_rotation_r	/forceset/tau_knee_flexion_r	/forceset/tau_ankle_angle_r	/forceset/tau_subtalar_angle_r	/forceset/tau_lumbar_extension	lambda_cid13_p0	lambda_cid14_p0	lambda_cid14_p1	lambda_cid14_p2	lambda_cid14_p3	lambda_cid14_p4	lambda_cid14_p5	/jointset/ground_pelvis/pelvis_tilt/accel	/jointset/ground_pelvis/pelvis_tx/accel	/jointset/ground_pelvis/pelvis_ty/accel	/jointset/hip_r/hip_flexion_r/accel	/jointset/hip_r/hip_adduction_r/accel	/jointset/hip_r/hip_rotation_r/accel	/jointset/back/lumbar_extension/accel	/jointset/patellofemoral_r/patellar_flexion_r/accel	/jointset/knee_r/knee_flexion_r/accel	/jointset/knee_r/knee_adduction_r/accel	/jointset/knee_r/knee_rotation_r/accel	/jointset/ankle_r/ankle_angle_r/accel	/jointset/subtalar_r/subtalar_angle_r/accel	gamma_cid13_p0	gamma_cid14_p0	gamma_cid14_p1	gamma_cid14_p2	gamma_cid14_p3	gamma_cid14_p4	gamma_cid14_p5
1	-0.07541376049921593	0.0715223736102078	0.8031527637640868	0.8343111408575706	-0.2332164737322004	-0.1020822500814503	-0.4361412689148409	1.004941559085906	1.004941559086001	-0.0201080710817455	0.1745288578443784	0.436317306648816	0.1098201551448265	-0.002219909309744343	0.007087426258911868	0.01180743472845238	-0.03730565484605692	0.002479907052668178	-0.01123605838850096	0.01667489382987189	-0.04812734698207134	-0.04812734698207084	-0.0002433345497727633	-3.137486389126386e-05	-0.009664545296051159	0.0006453234887903523	-0.1264079330995255	0.02667374776681128	0.0142333080616168	-0.4251133214691362	-0.05545913021139295	0.001706772589523739	0.1974136877188244	-11.80456994383046	-64.28784392026181	-10.14402354267112	1.653362333476458	19.12728040225542	-756.2717355258633	55.22419536235999	0.4527170216432893	0.00407071333874663	0.9517760757664322	-2.892009940083937	0.1075893121247834	-0.397022797271243	0.7595791725012025	-3.88039054494475	-3.880390544944601	0.6029082329897529	-0.007712764762950412	-1.629301321714578	-0.4573058670936418	1.225847095065311e-09	-1.985792519186791e-09	-4.254807708038871e-09	8.345752406934516e-09	5.43148686519009e-09	-5.061917333536039e-09	-5.315038581284555e-09
1.01	-0.07541415364566099	0.07159354155853176	0.8033182907531804	0.8337943863130391	-0.2331865103482101	-0.102214182379236	-0.435934997018733	1.004266480587807	1.00426648058796	-0.02007977607009938	0.1745284122455396	0.4361392518767296	0.1098033904437927	0.002110127986174895	0.007156459737439916	0.02129616493611786	-0.06603215238455899	0.00351070128689511	-0.01515170369580204	0.02467693592965878	-0.08690173875268557	-0.08690173875268217	0.005909313392455639	-5.552412282932397e-05	-0.02594284945819339	-0.003999517915092279	-0.1268566151689276	0.02680273101728921	0.01421771023499606	-0.4244941285243289	-0.05602070457490232	0.00173060811147137	0.1978607807602284	-11.84939145721614	-64.4715582420535	-10.15711872765473	1.645489579972942	19.13850225882263	-756.4332621629541	55.15673304990528	0.418474818900973	0.009865087204823708	0.9471503778734726	-2.861004054407186	0.1005164503563786	-0.389028677103568	0.8351343094135287	-3.877971824273542	-3.877971824273222	0.6224889214315692	0.0005696188708938264	-1.626561182331348	-0.4682605711143283	2.061241312343226e-09	-1.140315308112584e-09	-6.566233682006832e-09	1.521736816999199e-08	4.867740372469732e-09	-6.942373032397156e-09	-8.488689859959065e-09
1.02	-0.07537218087208014	0.07166570892605992	0.8035786508212719	0.8329907599143872	-0.2331463006276216	-0.1023853097860232	-0.4356457811854876	1.00320325650577	1.003203256505984	-0.01998974540971632	0.1745277922791798	0.4357985208192481	0.109740139869904	0.006253274695485266	0.00728731009975238	0.03077405052806351	-0.09468002567001525	0.004529174372514082	-0.01907508018886593	0.03326368125729217	-0.1257564637694515	-0.1257564637694464	0.01210379519837277	-6.624836856248375e-05	-0.04219980237502821	-0.008651851082125369	-0.1273052972383308	0.02693171426776069	0.014202112408423	-0.4238749355795198	-0.05658227893841355	0.00175444363340617	0.1983078738016324	-11.92008806703074	-64.66542918174191	-10.16547422940783	1.629416107463113	19.16562802222573	-756.7638119984676	55.12122633734842	0.4153389043215312	0.01643409009561252	0.9496071526224671	-2.876285089474766	0.1051250824031926	-0.3985690344238062	0.8765198180705071	-3.896457194175081	-3.896457194175172	0.6112750057274967	-0.005027762121969672	-1.625031072653124	-0.4588042197237403	2.879717818085748e-09	-9.074611895359907e-10	-1.225118638618784e-08	2.400274652891826e-08	5.73280087635498e-09	-8.247710380738367e-09	-1.644492405803768e-08
1.03	-0.07528967050970338	0.07173951116409884	0.8039336839602901	0.831901072497801	-0.2330959727559729	-0.1025957237447031	-0.4352677983249053	1.00175120956642	1.001751209566544	-0.01983760279442071	0.1745271211121599	0.4352953966784223	0.1096303646509389	0.01022021077667751	0.00748524523355369	0.0402254578352669	-0.1232403275410586	0.005533683980924548	-0.02300995560377215	0.04243004861890878	-0.164653630683763	-0.1646536306837594	0.01832819028164493	-6.681726798623218e-05	-0.05841458284148317	-0.01330115744510014	-0.1275867433397349	0.02696688444249286	0.01418672466145937	-0.4230339844849246	-0.05691529587378333	0.001741809024270306	0.1985922350304844	-12.01669737617093	-64.76377243130258	-10.17066897545015	1.610241727262772	19.12702847170506	-756.7096621182681	55.05623607994119	0.3830836640608265	0.02329071162028478	0.9418376864116567	-2.843332720244264	0.09771132869134097	-0.391278842341196	0.951268859182006	-3.886453172114992	-3.886453172115175	0.6285394872535784	0.002608850139001819	-1.618135081822504	-0.4676873945849346	3.698021694118726e-09	-6.808583270052946e-10	-1.79705628325139e-08	3.280765307759831e-08	6.612441043470906e-09	-9.547179174482433e-09	-2.444996012264086e-08
1.04	-0.07516834824570652	0.07181565625079529	0.8043830172057088	0.8305262960656384	-0.2330356803025147	-0.1028455528669957	-0.4347952370579118	0.9999101696115157	0.9999101696115514	-0.01962311268277089	0.1745264803169453	0.4346304380232959	0.1094741576583435	0.0140156550195821	0.007755879831256908	0.0496340718081703	-0.1516978287851082	0.006522090734593438	-0.0269581129113669	0.05217936253951873	-0.203555066880307	-0.2035550668803044	0.02457329446997879	-6.017400774699396e-05	-0.07456670523517159	-0.01793820580809884	-0.1278681894411431	0.02700205461721583	0.01417133691454497	-0.4221930333903279	-0.05724831280915578	0.001729174415116575	0.1988765962593338	-12.13924903050845	-64.87231568320809	-10.17114635643708	1.582887009844836	19.1034909011821	-756.8258156841764	55.02329012912323	0.3810405366640186	0.03097398287597627	0.9410484857624687	-2.855724964076026	0.1019045114548778	-0.4012254129615147	0.9931091298691829	-3.897311050621586	-3.897311050621551	0.615416826739832	-0.00358533018937159	-1.612499458099847	-0.456352619728531	4.593288320462303e-09	-2.807216266421447e-10	-2.334643543436137e-08	4.102956195399357e-08	7.285662155528097e-09	-1.102734289244993e-08	-3.152141070204102e-08
1.05	-0.07500991438835293	0.07189486011304817	0.8049261761239875	0.8288675257427891	-0.2329655809893595	-0.10313496067015	-0.434222381266358	0.9976801743778159	0.997680174377864	-0.01934612312416655	0.1745259311140799	0.4338042773926702	0.1092716667155963	0.01764247422086054	0.008095968497139533	0.05898576056388411	-0.180030747877823	0.00749525288439194	-0.03092756344989507	0.06247972649203977	-0.2424364655899738	-0.242436465589985	0.03082380896639681	-4.988166757634515e-05	-0.09065443421819284	-0.02255578206788125	-0.1279019968453619	0.02694132316212882	0.01415724068110813	-0.4211855762354349	-0.05734263657766316	0.001673973918573416	0.1989167138374645	-12.28773592311276	-64.88414610036735	-10.1720658765375	1.554334221216847	19.04830255441736	-756.5551084977039	54.96206410382525	0.3492072677751425	0.03718928728983733	0.9304338602827521	-2.818251530337508	0.09465133174562462	-0.3954152903306725	1.061689636076683	-3.882428247941956	-3.882428247944065	0.6297448769949103	0.003311869464662142	-1.605261361543514	-0.4638285896596774	5.490960032753086e-09	1.248380061532685e-10	-2.871157354106889e-08	4.923325215312994e-08	7.952432672114704e-09	-1.251315332679941e-08	-3.856368673502859e-08
1.06	-0.074816071407804	0.07197779745772889	0.8055624928877848	0.8269261909993177	-0.2328858242017067	-0.1034641850618961	-0.4335438839136522	0.9950615903636583	0.995061590363721	-0.0190066531974212	0.174525479905286	0.4328175691235867	0.1090231263181396	0.02109747965875657	0.008502576316826453	0.06826564091187906	-0.20821071290927	0.008453585634325474	-0.0349214306297131	0.0733076747698881	-0.2812728229717503	-0.2812728229717756	0.03706936809890114	-4.057519363072328e-05	-0.1066762329268246	-0.02714809674992723	-0.1279358042495851	0.02688059170703343	0.01414314444771322	-0.4201781190805408	-0.05743696034617295	0.0016187734220141	0.1989568314155921	-12.46214863237382	-64.90620234955567	-10.16833465931751	1.517682668452527	19.00727565703604	-756.4555429479597	54.9328868397416	0.3466777839875524	0.04427781363681731	0.926686804218695	-2.825134151822449	0.09893863148188518	-0.4061087412194886	1.098625994934648	-3.888302785043534	-3.888302785043536	0.614425753957087	-0.003782503434376631	-1.599313403221971	-0.4513003041812523	6.216960685251143e-09	2.486343221543472e-10	-3.455426391235708e-08	5.613161758058046e-08	8.77616150905559e-09	-1.388769376237548e-08	-4.594730884110232e-08
